<?xml version="1.0" encoding="UTF-8" standalone="no"?>
<svg
   height="50"
   viewBox="0 -960 2000 2000"
   width="50"
   version="1.1"
   id="svg4"
   sodipodi:docname="neurology_FILL0_wght400_GRAD0_opsz24.svg"
   inkscape:version="1.2.1 (9c6d41e410, 2022-07-14)"
   xmlns:inkscape="http://www.inkscape.org/namespaces/inkscape"
   xmlns:sodipodi="http://sodipodi.sourceforge.net/DTD/sodipodi-0.dtd"
   xmlns="http://www.w3.org/2000/svg"
   xmlns:svg="http://www.w3.org/2000/svg">
  <defs
     id="defs8" />
  <sodipodi:namedview
     id="namedview6"
     pagecolor="#ffffff"
     bordercolor="#000000"
     borderopacity="0.25"
     inkscape:showpageshadow="2"
     inkscape:pageopacity="0.0"
     inkscape:pagecheckerboard="0"
     inkscape:deskcolor="#d1d1d1"
     showgrid="false"
     inkscape:zoom="9.7968464"
     inkscape:cx="21.384432"
     inkscape:cy="25.212195"
     inkscape:window-width="1366"
     inkscape:window-height="742"
     inkscape:window-x="0"
     inkscape:window-y="0"
     inkscape:window-maximized="1"
     inkscape:current-layer="svg4" />
  <path
     d="M 750,1040 Q 608.33333,1040 505.55556,941.3889 402.77778,842.77778 388.88889,703.88889 222.22222,681.66667 111.11111,556.66667 0,431.66667 0,262.22222 0,203.88889 15.27778,146.94444 30.55556,90 61.11111,40 30.55556,-10 15.27778,-65.555556 0,-121.11111 0,-182.22222 q 0,-169.44445 111.11111,-293.05556 111.11111,-123.61111 275,-145.83333 Q 394.44444,-762.77778 500,-861.38889 605.55556,-960 750,-960 q 72.22222,0 134.7222,27.77778 62.5,27.77778 115.2778,75 50,-47.22222 113.8889,-75 Q 1177.7778,-960 1250,-960 q 144.4444,0 248.6111,97.22222 104.1667,97.22222 112.5,238.88889 163.8889,22.22222 276.3889,147.22222 112.5,125 112.5,294.44445 0,61.11111 -15.2778,116.666664 Q 1969.4444,-10 1938.8889,40 1969.4444,90 1984.7222,146.94444 2000,203.88889 2000,262.22222 2000,434.44444 1887.5,558.05556 1775,681.66667 1608.3333,703.88889 1594.4444,842.77778 1493.0556,941.3889 1391.6667,1040 1250,1040 q -69.4444,0 -134.7222,-26.3889 Q 1050,987.2222 1000,940 947.2222,987.2222 883.3333,1013.6111 819.44444,1040 750,1040 Z M 1111.1111,-598.88889 V 678.88889 q 0,58.33333 40.2778,98.61111 40.2778,40.27778 98.6111,40.27778 55.5556,0 95.8333,-44.44445 40.2778,-44.44444 43.0556,-100 -58.3333,-22.22222 -106.9445,-59.72222 -48.6111,-37.5 -87.5,-90.27778 -27.7777,-38.88889 -20.8333,-83.33333 6.9445,-44.44444 45.8333,-72.22222 38.8889,-27.77778 83.3334,-20.83334 44.4444,6.94445 72.2222,45.83334 30.5556,44.44444 77.7778,68.05555 47.2222,23.61111 102.7778,23.61111 91.6666,0 156.9444,-65.27777 65.2778,-65.27778 65.2778,-156.94445 0,-13.88889 -1.3889,-27.77778 -1.3889,-13.88888 -6.9445,-27.77777 -47.2222,27.77777 -101.3888,41.66666 -54.1667,13.88889 -112.5,13.88889 -47.2223,0 -79.1667,-31.94444 -31.9445,-31.94445 -31.9445,-79.16667 0,-47.22222 31.9445,-79.16667 Q 1508.3333,40 1555.5556,40 q 91.6666,0 156.9444,-65.277778 65.2778,-65.277778 65.2778,-156.944442 0,-91.66667 -65.2778,-155.55556 -65.2778,-63.88889 -156.9444,-66.66666 -30.5556,50 -79.1667,87.5 -48.6111,37.5 -106.9445,59.72222 Q 1325,-240.55556 1283.3333,-260 q -41.6666,-19.44444 -55.5555,-63.88889 -13.8889,-44.44444 4.1666,-86.11111 18.0556,-41.66667 62.5,-55.55556 41.6667,-13.88888 68.0556,-50 26.3889,-36.11111 26.3889,-83.33333 0,-58.33333 -40.2778,-98.61111 -40.2778,-40.27778 -98.6111,-40.27778 -58.3333,0 -98.6111,40.27778 -40.2778,40.27778 -40.2778,98.61111 z M 888.8889,678.88889 V -598.88889 q 0,-58.33333 -40.27779,-98.61111 -40.27778,-40.27778 -98.61111,-40.27778 -58.33333,0 -98.61111,40.27778 -40.27778,40.27778 -40.27778,98.61111 0,44.44445 25,81.94445 25,37.5 66.66667,51.38888 44.44444,13.88889 63.88889,55.55556 19.44444,41.66667 5.55555,86.11111 -16.66666,44.44445 -58.33333,63.88889 -41.66667,19.44444 -86.11111,2.77778 -58.33334,-22.22222 -106.94445,-59.72222 -48.61111,-37.5 -79.16666,-87.5 -88.88889,2.77777 -154.16667,68.05555 -65.27778,65.27778 -65.27778,154.16667 0,91.666664 65.27778,156.944442 Q 352.77778,40 444.44444,40 q 47.22223,0 79.16667,31.94444 31.94445,31.94445 31.94445,79.16667 0,47.22222 -31.94445,79.16667 -31.94444,31.94444 -79.16667,31.94444 -58.33333,0 -112.5,-13.88889 -54.16666,-13.88889 -101.38888,-41.66666 -5.55556,13.88889 -6.94445,27.77777 -1.38889,13.88889 -1.38889,27.77778 0,91.66667 65.27778,156.94445 65.27778,65.27777 156.94444,65.27777 55.55556,0 102.77778,-23.61111 Q 594.44444,437.22222 625,392.77778 652.77778,353.88889 697.22222,346.94444 741.66667,340 780.55556,367.77778 819.44444,395.55556 826.38889,440 q 6.94444,44.44444 -20.83333,83.33333 -38.88889,52.77778 -88.88889,91.66667 -50,38.88889 -108.33334,61.11111 2.77778,55.55556 44.44445,98.61111 41.66666,43.05556 97.22222,43.05556 58.33333,0 98.61111,-40.27778 40.27779,-40.27778 40.27779,-98.61111 z M 1000,40 Z"
     id="path2"
     style="stroke-width:2.77778;fill:#008066" />
</svg>
